<svg width="40" height="42" viewBox="0 0 40 42" fill="none" xmlns="http://www.w3.org/2000/svg">
<path d="M38.9758 10.3405L38.9639 10.2931C38.0055 6.41842 33.6845 2.26071 29.7164 1.39572L29.6716 1.38651C23.2533 0.162099 16.7455 0.162099 10.3286 1.38651L10.2825 1.39572C6.31571 2.26071 1.99473 6.41842 1.03496 10.2931L1.02442 10.3405C-0.160485 15.7516 -0.160485 21.239 1.02442 26.6501L1.03496 26.6975C1.95379 30.4068 5.95299 34.3735 9.77301 35.4644V39.7896C9.77301 41.355 11.6807 42.1238 12.7656 40.9942L17.1478 36.439C18.0982 36.4922 19.0491 36.5218 20.0001 36.5218C23.231 36.5218 26.4631 36.2164 29.6716 35.6042L29.7164 35.595C33.6845 34.73 38.0055 30.5723 38.9639 26.6976L38.9758 26.6502C40.1607 21.239 40.1607 15.7516 38.9758 10.3405ZM35.5079 25.8654C34.8681 28.3932 31.5872 31.5359 28.9804 32.1165C25.5677 32.7654 22.1281 33.0428 18.6918 32.9476C18.6235 32.9458 18.5578 32.9722 18.5101 33.0212C18.0225 33.5218 15.3105 36.3058 15.3105 36.3058L11.9072 39.7986C11.6583 40.058 11.2212 39.8816 11.2212 39.5235V32.3585C11.2212 32.2401 11.1367 32.1395 11.0205 32.1167C11.0198 32.1166 11.0191 32.1165 11.0185 32.1163C8.41168 31.5357 5.13211 28.3931 4.49094 25.8653C3.42453 20.9742 3.42453 16.0161 4.49094 11.125C5.13211 8.59721 8.41168 5.45456 11.0185 4.87396C16.9786 3.74039 23.0216 3.74039 28.9804 4.87396C31.5885 5.45456 34.8681 8.59721 35.5079 11.125C36.5755 16.0162 36.5755 20.9744 35.5079 25.8654Z" fill="white"/>
<path d="M25.6707 29.1728C25.2699 29.0511 24.888 28.9694 24.5333 28.8222C20.858 27.2973 17.4754 25.3301 14.7961 22.3145C13.2724 20.5997 12.0799 18.6637 11.0718 16.6148C10.5937 15.6432 10.1909 14.6335 9.78024 13.6305C9.4058 12.7157 9.95731 11.7707 10.5381 11.0815C11.083 10.4346 11.7842 9.9396 12.5436 9.57478C13.1363 9.29001 13.721 9.45418 14.1539 9.95658C15.0897 11.0427 15.9493 12.1845 16.6453 13.4435C17.0734 14.2179 16.9559 15.1645 16.1802 15.6915C15.9917 15.8196 15.8199 15.97 15.6442 16.1147C15.4902 16.2415 15.3452 16.3696 15.2396 16.5413C15.0466 16.8554 15.0374 17.2259 15.1617 17.5674C16.1183 20.1963 17.7307 22.2405 20.3768 23.3416C20.8002 23.5177 21.2254 23.7229 21.7132 23.666C22.5301 23.5705 22.7946 22.6745 23.3671 22.2063C23.9266 21.7488 24.6416 21.7427 25.2444 22.1241C25.8472 22.5057 26.4316 22.9153 27.0125 23.3292C27.5827 23.7355 28.1504 24.133 28.6764 24.5961C29.1821 25.0415 29.3563 25.6258 29.0715 26.2303C28.5501 27.3372 27.7915 28.2582 26.6972 28.846C26.3882 29.0118 26.0192 29.0655 25.6707 29.1728C26.0192 29.0655 25.2699 29.051 25.6707 29.1728Z" fill="white"/>
<path d="M20.0101 8.30901C24.8176 8.44369 28.7661 11.6341 29.6122 16.3869C29.7564 17.1968 29.8077 18.0247 29.8719 18.8467C29.8989 19.1924 29.7031 19.5209 29.33 19.5254C28.9446 19.53 28.7712 19.2075 28.7462 18.862C28.6967 18.1779 28.6623 17.4907 28.5681 16.8123C28.0704 13.2311 25.2148 10.2683 21.6501 9.63255C21.1138 9.53684 20.5648 9.51169 20.0214 9.45468C19.6779 9.41861 19.2281 9.39781 19.152 8.97085C19.0881 8.61287 19.3903 8.32783 19.7311 8.30953C19.8238 8.3044 19.917 8.30861 20.0101 8.30901C19.917 8.30861 24.8176 8.44369 20.0101 8.30901Z" fill="white"/>
<path d="M27.316 17.7798C27.3081 17.8399 27.3039 17.981 27.2687 18.114C27.1411 18.5966 26.4094 18.6571 26.2409 18.1699C26.191 18.0254 26.1835 17.8609 26.1832 17.7053C26.1815 16.6871 25.9602 15.6699 25.4467 14.784C24.9189 13.8735 24.1125 13.108 23.1667 12.6448C22.5948 12.3648 21.9763 12.1908 21.3494 12.087C21.0755 12.0417 20.7986 12.0142 20.5233 11.9759C20.1897 11.9295 20.0115 11.7169 20.0273 11.3882C20.0421 11.0801 20.2672 10.8585 20.6029 10.8775C21.7062 10.9401 22.7719 11.1786 23.7527 11.698C25.7473 12.7542 26.8867 14.4215 27.2192 16.6479C27.2342 16.7487 27.2585 16.8486 27.2661 16.9499C27.2849 17.1999 27.2968 17.4502 27.316 17.7798C27.2968 17.4502 27.3081 17.8399 27.316 17.7798Z" fill="white"/>
<path d="M24.3258 17.6634C23.9236 17.6707 23.7083 17.4481 23.6668 17.0793C23.638 16.8222 23.6152 16.5616 23.5539 16.3115C23.433 15.8188 23.1711 15.3622 22.7567 15.0603C22.5611 14.9177 22.3393 14.8139 22.1071 14.7469C21.8121 14.6617 21.5057 14.6851 21.2113 14.613C20.8916 14.5346 20.7148 14.2758 20.7651 13.9759C20.8108 13.7029 21.0764 13.4899 21.3746 13.5115C23.2384 13.6461 24.5705 14.6097 24.7606 16.8039C24.7741 16.9587 24.7899 17.1223 24.7555 17.2704C24.6967 17.524 24.5089 17.6511 24.3258 17.6634C24.5089 17.6511 23.9236 17.6707 24.3258 17.6634Z" fill="white"/>
</svg>
